<svg width="22" height="22" viewBox="0 0 22 22" fill="none" xmlns="http://www.w3.org/2000/svg">
<path d="M11 0.266479C9.55546 0.266479 8.12506 0.551003 6.79048 1.1038C5.4559 1.65661 4.24327 2.46686 3.22183 3.4883C1.15893 5.55121 0 8.3491 0 11.2665C0 16.1285 3.157 20.2535 7.524 21.7165C8.074 21.8045 8.25 21.4635 8.25 21.1665V19.3075C5.203 19.9675 4.554 17.8335 4.554 17.8335C4.048 16.5575 3.333 16.2165 3.333 16.2165C2.332 15.5345 3.41 15.5565 3.41 15.5565C4.51 15.6335 5.093 16.6895 5.093 16.6895C6.05 18.3615 7.667 17.8665 8.294 17.6025C8.393 16.8875 8.679 16.4035 8.987 16.1285C6.545 15.8535 3.982 14.9075 3.982 10.7165C3.982 9.49548 4.4 8.51648 5.115 7.73548C5.005 7.46048 4.62 6.31648 5.225 4.83148C5.225 4.83148 6.149 4.53448 8.25 5.95348C9.119 5.71148 10.065 5.59048 11 5.59048C11.935 5.59048 12.881 5.71148 13.75 5.95348C15.851 4.53448 16.775 4.83148 16.775 4.83148C17.38 6.31648 16.995 7.46048 16.885 7.73548C17.6 8.51648 18.018 9.49548 18.018 10.7165C18.018 14.9185 15.444 15.8425 12.991 16.1175C13.387 16.4585 13.75 17.1295 13.75 18.1525V21.1665C13.75 21.4635 13.926 21.8155 14.487 21.7165C18.854 20.2425 22 16.1285 22 11.2665C22 9.82194 21.7155 8.39154 21.1627 7.05696C20.6099 5.72238 19.7996 4.50975 18.7782 3.4883C17.7567 2.46686 16.5441 1.65661 15.2095 1.1038C13.8749 0.551003 12.4445 0.266479 11 0.266479Z" fill="black"/>
</svg>
