<svg width="20" height="26" viewBox="0 0 20 26" fill="none" xmlns="http://www.w3.org/2000/svg">
<path d="M11.25 9.25H18.125L11.25 2.375V9.25ZM2.5 0.5H12.5L20 8V23C20 23.663 19.7366 24.2989 19.2678 24.7678C18.7989 25.2366 18.163 25.5 17.5 25.5H2.5C1.83696 25.5 1.20107 25.2366 0.732233 24.7678C0.263392 24.2989 0 23.663 0 23V3C0 1.6125 1.1125 0.5 2.5 0.5ZM12.5 23V21.75C12.5 20.0875 9.1625 19.25 7.5 19.25C5.8375 19.25 2.5 20.0875 2.5 21.75V23H12.5ZM7.5 13C6.83696 13 6.20107 13.2634 5.73223 13.7322C5.26339 14.2011 5 14.837 5 15.5C5 16.163 5.26339 16.7989 5.73223 17.2678C6.20107 17.7366 6.83696 18 7.5 18C8.16304 18 8.79893 17.7366 9.26777 17.2678C9.73661 16.7989 10 16.163 10 15.5C10 14.837 9.73661 14.2011 9.26777 13.7322C8.79893 13.2634 8.16304 13 7.5 13Z" fill="black"/>
</svg>
