<svg width="90" height="171" viewBox="0 0 90 171" fill="none" xmlns="http://www.w3.org/2000/svg">
<g clip-path="url(#clip0_15_476)">
<path d="M40.7122 52.714C45.1772 58.035 47.1132 65.681 47.4292 75.88C47.5472 79.696 47.4582 83.14 47.1762 88.979C47.1612 89.272 47.1442 89.638 47.1122 90.284C47.0872 90.797 47.0692 91.181 47.0512 91.551C47.0072 92.486 46.9752 93.248 46.9492 93.954C46.3172 110.965 43.0622 127.677 37.0132 147.465C36.8022 148.15 36.5842 148.868 36.3352 149.687C36.4782 149.217 34.8742 154.517 34.4332 155.958C32.7202 161.559 31.4012 165.59 29.9752 169.435C29.5912 170.471 28.4402 170.999 27.4052 170.615C26.3692 170.231 25.8412 169.08 26.2252 168.045C27.6182 164.287 28.9162 160.321 30.6082 154.788C31.0472 153.354 32.6482 148.062 32.5082 148.525C32.7572 147.703 32.9772 146.981 33.1882 146.294C39.1432 126.814 42.3342 110.431 42.9512 93.806C42.9782 93.086 43.0112 92.311 43.0562 91.364C43.0732 90.991 43.0922 90.605 43.1172 90.09C43.1482 89.443 43.1662 89.078 43.1802 88.786C43.4582 83.046 43.5442 79.684 43.4302 76.003C43.1402 66.621 41.4032 59.76 37.6482 55.286C36.9382 54.44 37.0482 53.178 37.8942 52.468C38.7402 51.758 40.0022 51.868 40.7122 52.714Z" fill="#007D43"/>
<path fill-rule="evenodd" clip-rule="evenodd" d="M79.8071 90.84C86.3001 90.979 92.1131 84.387 89.0801 78.359C88.2661 76.767 86.9561 75.482 85.3491 74.698C78.2241 71.101 68.4011 75.939 70.8741 84.133C72.3411 89.039 74.7891 90.737 79.8071 90.84ZM76.8271 78.314C78.8541 77.316 81.6171 77.292 83.5561 78.274L83.5871 78.29C84.4201 78.693 85.0981 79.358 85.5131 80.169C87.0081 83.139 83.6721 86.922 79.8911 86.841C76.5411 86.772 75.6541 86.157 74.7051 82.982C74.0611 80.847 74.8531 79.284 76.8271 78.314Z" fill="#007D43"/>
<path fill-rule="evenodd" clip-rule="evenodd" d="M22.0051 121.176C27.5111 117.018 26.4001 110.855 21.2121 107.338C16.0731 103.856 9.92406 105.039 8.71406 111.499C7.33106 118.779 15.6341 125.986 22.0051 121.176ZM19.5951 117.984C16.5101 120.313 11.8751 116.288 12.6441 112.244L12.6461 112.238C13.2311 109.105 15.9241 108.587 18.9681 110.649C22.1061 112.777 22.6321 115.69 19.5951 117.984Z" fill="#007D43"/>
<path d="M23.936 115.303C35.35 121.346 42.113 133.38 37.681 144.217C37.263 145.24 36.095 145.73 35.073 145.311C34.051 144.893 33.561 143.726 33.979 142.703C37.506 134.079 31.854 124.021 22.064 118.838C21.088 118.321 20.716 117.111 21.232 116.134C21.749 115.158 22.96 114.786 23.936 115.303Z" fill="#007D43"/>
<path d="M73.1421 85.529C66.2021 86.772 60.3231 90.667 54.8961 97.612C50.7001 102.98 48.3291 107.597 44.4791 116.961C44.0601 117.982 42.8911 118.47 41.8691 118.05C40.8481 117.63 40.3601 116.462 40.7801 115.44C44.7581 105.763 47.2681 100.875 51.7441 95.149C57.7451 87.47 64.4621 83.02 72.4371 81.592C73.5241 81.397 74.5641 82.121 74.7581 83.208C74.9531 84.295 74.2291 85.334 73.1421 85.529Z" fill="#007D43"/>
<path d="M46.7752 1.821C47.1912 3.122 48.6622 7.697 48.9212 8.506C50.3572 12.986 51.3732 16.213 52.3442 19.419C53.7322 23.998 54.8862 28.077 55.8682 31.937C57.8192 39.544 58.2012 48.471 56.2562 53.742C54.2902 59.072 47.2662 61.66 38.8202 62.637C32.4602 63.37 28.3092 62.395 23.8142 58.622C18.7882 54.402 15.2172 48.754 12.0572 40.984C11.8712 40.524 11.6812 40.057 11.4252 39.429C11.1091 38.651 10.9381 38.231 10.7911 37.871C4.99215 23.611 2.41715 16.321 0.593151 7.642C0.412151 6.781 0.814178 5.904 1.58418 5.479C6.62118 2.7 10.6922 1.907 19.7342 1.222C21.8832 1.059 22.5472 1.007 23.6172 0.908996C24.1382 0.857996 26.0032 0.675995 26.1572 0.660995C29.6712 0.318995 31.9332 0.134003 34.3122 0.0220029C38.5002 -0.174997 42.0502 -0.0599996 45.1942 0.457C45.9352 0.579 46.5462 1.105 46.7752 1.821Z" fill="#FC6E47"/>
<path d="M42.674 31.616C42.242 28.829 41.187 25.026 39.638 20.491C39.122 18.981 38.558 17.409 37.954 15.79C36.857 12.851 35.681 9.89599 34.505 7.07399C34.093 6.08599 33.711 5.185 33.368 4.391C33.163 3.915 33.018 3.58199 32.941 3.40999C32.494 2.39899 32.951 1.21798 33.961 0.770985C34.971 0.323985 36.152 0.780989 36.599 1.79099C36.621 1.83899 36.659 1.92799 36.716 2.05799C36.81 2.27299 36.919 2.523 37.041 2.807C37.39 3.616 37.779 4.53199 38.197 5.53499C39.391 8.40099 40.586 11.401 41.702 14.392C42.318 16.045 42.895 17.651 43.423 19.198C45.041 23.937 46.1521 27.937 46.6271 31.004C46.7961 32.096 46.048 33.118 44.956 33.287C43.864 33.456 42.843 32.708 42.674 31.616Z" fill="#C44538"/>
<path d="M31.258 31.608C30.342 29.44 29.4821 27.194 28.6351 24.781C27.5141 21.59 26.655 18.87 25.005 13.424C23.418 8.186 22.823 6.26701 21.913 3.54401C21.563 2.49601 22.129 1.36301 23.176 1.01301C24.224 0.663008 25.357 1.229 25.707 2.277C26.633 5.048 27.2351 6.98802 28.8331 12.264C30.4671 17.656 31.313 20.336 32.409 23.456C33.23 25.794 34.06 27.964 34.942 30.052C35.372 31.069 34.896 32.243 33.878 32.673C32.861 33.102 31.688 32.626 31.258 31.608Z" fill="#C44538"/>
<path d="M20.0891 33.319C20.0431 33.171 19.9571 32.892 19.8371 32.502C19.6361 31.851 19.4122 31.126 19.1702 30.345C18.4792 28.115 17.7841 25.884 17.1321 23.802L17.0492 23.539C16.1062 20.533 15.3391 18.122 14.8101 16.515C14.6701 16.088 13.8141 13.529 13.5551 12.737C13.3141 12 13.1011 11.332 12.9051 10.693C12.1841 8.34898 11.7012 6.44799 11.4632 4.85699C11.2992 3.76499 12.0511 2.74698 13.1431 2.58298C14.2361 2.41798 15.2541 3.17099 15.4181 4.26299C15.6211 5.61599 16.0611 7.347 16.7281 9.518C16.9171 10.132 17.1231 10.778 17.3571 11.494C17.6101 12.269 18.4661 14.825 18.6111 15.267C19.1461 16.894 19.9181 19.32 20.8661 22.341L20.9491 22.606C21.6031 24.692 22.2981 26.927 22.9911 29.161C23.2331 29.944 23.4581 30.67 23.6591 31.322C23.7801 31.713 23.8661 31.992 23.9121 32.142C24.2371 33.197 23.6451 34.317 22.5891 34.642C21.5331 34.967 20.4141 34.375 20.0891 33.319Z" fill="#C44538"/>
</g>
<defs>
<clipPath id="clip0_15_476">
<rect width="90" height="171" fill="white" transform="matrix(-1 0 0 1 90 0)"/>
</clipPath>
</defs>
</svg>
